# Blender 4.4.0
# www.blender.org
mtllib hat.mtl
o Sphere
v -0.020749 0.291676 -0.191830
v 0.002940 0.040392 -0.288386
v 0.164417 0.293640 -0.088712
v 0.236538 0.040392 -0.118758
v 0.174588 0.269835 0.101461
v 0.241870 0.053015 0.145956
v 0.007761 0.253531 0.208146
v 0.000279 0.040392 0.318320
v -0.018336 0.327859 -0.007972
v -0.216506 0.223405 0.125000
v -0.277603 0.040392 0.188966
v -0.186540 0.253565 -0.092417
v -0.281405 0.040392 -0.171054
vn 0.0974 0.9763 -0.1934
vn 0.5197 0.2995 -0.8001
vn 0.2292 0.9673 0.1088
vn 0.9586 0.2835 -0.0257
vn 0.5106 0.3530 0.7840
vn 0.1071 0.9441 0.3118
vn -0.3741 0.4267 0.8234
vn -0.2484 0.9064 0.3417
vn -0.9300 0.3669 -0.0230
vn -0.4305 0.9002 0.0655
vn -0.4277 0.3757 -0.8222
vn -0.3210 0.9300 -0.1788
vt 0.666667 0.833333
vt 0.583333 1.000000
vt 0.500000 0.833333
vt 0.666667 0.666667
vt 0.500000 0.666667
vt 0.416667 1.000000
vt 0.333333 0.833333
vt 0.333333 0.666667
vt 0.166667 0.833333
vt 0.166667 0.666667
vt 0.250000 1.000000
vt 0.000000 0.833333
vt 0.000000 0.666667
vt 0.083333 1.000000
vt 1.000000 0.666667
vt 1.000000 0.833333
vt 0.833333 0.833333
vt 0.833333 0.666667
vt 0.916667 1.000000
vt 0.750000 1.000000
s 0
usemtl Hat
f 1/1/1 9/2/1 3/3/1
f 2/4/2 1/1/2 3/3/2 4/5/2
f 3/3/3 9/6/3 5/7/3
f 4/5/4 3/3/4 5/7/4 6/8/4
f 6/8/5 5/7/5 7/9/5 8/10/5
f 5/7/6 9/11/6 7/9/6
f 8/10/7 7/9/7 10/12/7 11/13/7
f 7/9/8 9/14/8 10/12/8
f 11/15/9 10/16/9 12/17/9 13/18/9
f 10/16/10 9/19/10 12/17/10
f 13/18/11 12/17/11 1/1/11 2/4/11
f 12/17/12 9/20/12 1/1/12
o Circle
v -0.309915 0.040416 0.113591
v -0.309915 0.040416 -0.136409
v -0.486692 0.040416 -0.063186
v -0.559915 0.040416 0.113591
v -0.486692 0.040416 0.290368
v -0.304814 0.040416 0.417800
v -0.133138 0.040416 0.290368
v -0.059915 0.040416 0.113591
v -0.133138 0.040416 -0.063186
v 0.216994 0.040416 -0.217617
v 0.216994 0.040416 -0.467617
v 0.065563 0.040416 -0.429351
v -0.033006 0.040416 -0.217617
v 0.040218 0.040416 -0.040840
v 0.216994 0.040416 0.032383
v 0.393771 0.040416 -0.040840
v 0.466994 0.040416 -0.217617
v 0.393771 0.040416 -0.394394
v -0.111082 0.040416 -0.310070
v -0.111082 0.040416 -0.560070
v -0.287858 0.040416 -0.486847
v -0.361082 0.040416 -0.310070
v -0.287858 0.040416 -0.133293
v -0.111082 0.040416 -0.060070
v 0.065695 0.040416 -0.133293
v 0.138918 0.040416 -0.310070
v 0.065695 0.040416 -0.486847
v -0.347252 0.040416 -0.111537
v -0.321398 0.040416 -0.394710
v -0.524029 0.040416 -0.288314
v -0.597252 0.040416 -0.111537
v -0.540608 0.040416 0.086936
v -0.347252 0.040416 0.138463
v -0.170475 0.040416 0.065239
v -0.097252 0.040416 -0.111537
v -0.170475 0.040416 -0.288314
v 0.286361 0.040416 0.036940
v 0.286361 0.040416 -0.213060
v 0.109585 0.040416 -0.139836
v 0.036361 0.040416 0.036940
v 0.109585 0.040416 0.213717
v 0.286361 0.040416 0.286940
v 0.463138 0.040416 0.213717
v 0.536361 0.040416 0.036940
v 0.471241 0.040416 -0.108283
v 0.165263 0.040416 0.303792
v 0.165263 0.040416 0.053792
v -0.011513 0.040416 0.127015
v -0.084737 0.040416 0.303792
v -0.006909 0.040416 0.522947
v 0.165263 0.040416 0.553792
v 0.342040 0.040416 0.480569
v 0.415263 0.040416 0.303792
v 0.342040 0.040416 0.127015
v -0.100711 0.040416 0.325593
v -0.100711 0.040416 0.075593
v -0.277487 0.040416 0.148816
v -0.350711 0.040416 0.325593
v -0.277487 0.040416 0.502370
v -0.100759 0.040416 0.560096
v 0.076066 0.040416 0.502370
v 0.149289 0.040416 0.325593
v 0.076066 0.040416 0.148816
vn -0.0000 1.0000 -0.0000
vt 0.500000 0.500000
vt 0.500000 1.000000
vt 0.146447 0.853553
vt 0.000000 0.500000
vt 0.146447 0.146447
vt 0.500000 0.000000
vt 0.853553 0.146447
vt 1.000000 0.500000
vt 0.853553 0.853553
s 0
usemtl Hat
f 14/21/13 15/22/13 16/23/13
f 14/21/13 16/23/13 17/24/13
f 14/21/13 17/24/13 18/25/13
f 14/21/13 18/25/13 19/26/13
f 14/21/13 19/26/13 20/27/13
f 14/21/13 20/27/13 21/28/13
f 14/21/13 21/28/13 22/29/13
f 14/21/13 22/29/13 15/22/13
f 23/21/13 24/22/13 25/23/13
f 23/21/13 25/23/13 26/24/13
f 23/21/13 26/24/13 27/25/13
f 23/21/13 27/25/13 28/26/13
f 23/21/13 28/26/13 29/27/13
f 23/21/13 29/27/13 30/28/13
f 23/21/13 30/28/13 31/29/13
f 23/21/13 31/29/13 24/22/13
f 32/21/13 33/22/13 34/23/13
f 32/21/13 34/23/13 35/24/13
f 32/21/13 35/24/13 36/25/13
f 32/21/13 36/25/13 37/26/13
f 32/21/13 37/26/13 38/27/13
f 32/21/13 38/27/13 39/28/13
f 32/21/13 39/28/13 40/29/13
f 32/21/13 40/29/13 33/22/13
f 41/21/13 42/22/13 43/23/13
f 41/21/13 43/23/13 44/24/13
f 41/21/13 44/24/13 45/25/13
f 41/21/13 45/25/13 46/26/13
f 41/21/13 46/26/13 47/27/13
f 41/21/13 47/27/13 48/28/13
f 41/21/13 48/28/13 49/29/13
f 41/21/13 49/29/13 42/22/13
f 50/21/13 51/22/13 52/23/13
f 50/21/13 52/23/13 53/24/13
f 50/21/13 53/24/13 54/25/13
f 50/21/13 54/25/13 55/26/13
f 50/21/13 55/26/13 56/27/13
f 50/21/13 56/27/13 57/28/13
f 50/21/13 57/28/13 58/29/13
f 50/21/13 58/29/13 51/22/13
f 59/21/13 60/22/13 61/23/13
f 59/21/13 61/23/13 62/24/13
f 59/21/13 62/24/13 63/25/13
f 59/21/13 63/25/13 64/26/13
f 59/21/13 64/26/13 65/27/13
f 59/21/13 65/27/13 66/28/13
f 59/21/13 66/28/13 67/29/13
f 59/21/13 67/29/13 60/22/13
f 68/21/13 69/22/13 70/23/13
f 68/21/13 70/23/13 71/24/13
f 68/21/13 71/24/13 72/25/13
f 68/21/13 72/25/13 73/26/13
f 68/21/13 73/26/13 74/27/13
f 68/21/13 74/27/13 75/28/13
f 68/21/13 75/28/13 76/29/13
f 68/21/13 76/29/13 69/22/13
